<?xml version="1.0" encoding="UTF-8" standalone="no"?>
<svg
   xmlns:dc="http://purl.org/dc/elements/1.1/"
   xmlns:cc="http://creativecommons.org/ns#"
   xmlns:rdf="http://www.w3.org/1999/02/22-rdf-syntax-ns#"
   xmlns:svg="http://www.w3.org/2000/svg"
   xmlns="http://www.w3.org/2000/svg"
   version="1.1"
   viewBox="1 1 2019 264" enable-background="new 1 1 2019 264" 
   id="svg2"
   xml:space="preserve"><metadata
     id="metadata8"><rdf:RDF><cc:Work
         rdf:about=""><dc:format>image/svg+xml</dc:format><dc:type
           rdf:resource="http://purl.org/dc/dcmitype/StillImage" /><dc:title></dc:title></cc:Work></rdf:RDF></metadata><defs
     id="defs6"><clipPath
       id="clipPath16"><path
         d="m 0,645.065 2361.236,0 L 2361.236,0 0,0 0,645.065 z"
         id="path18" /></clipPath></defs><g
     transform="matrix(1.25,0,0,-1.25,-798.376,504.72425)"
     id="g10"><g
       id="g12"><g
         clip-path="url(#clipPath16)"
         id="g14"><g
           transform="translate(1958.6848,251.8158)"
           id="g20"><path
             d="m 0,0 c 36.479,0 59.586,23.738 59.586,59.614 l 0,79.075 -31.048,0 0,-79.075 c 0,-12.866 -9.287,-28.109 -26.934,-28.109 -17.647,0 -27.553,14.851 -27.553,28.109 l 0,79.075 -31.145,0 0,-79.075 C -57.094,22.633 -31.123,0 -0.119,0 L 0,0 z"
             id="path22"
             style="fill:#FFFFFF;fill-opacity:1;fill-rule:nonzero;stroke:none" /></g><g
           transform="translate(1635.9214,254.3064)"
           id="g24"><path
             d="m 0,0 -37.328,0 -43.925,74.45 -10.942,21.045 0.012,-0.421 0.824,-24.334 0,-70.74 -29.702,0 0,136.117 37.333,0 43.929,-74.454 10.951,-20.453 -0.021,0.451 -0.828,23.717 0,70.739 29.697,0 L 0,0 z"
             id="path26"
             style="fill:#FFFFFF;fill-opacity:1;fill-rule:nonzero;stroke:none" /></g><g
           transform="translate(720.3248,395.7794)"
           id="g28"><path
             d="M 0,0 C 25.456,0 47.753,-13.043 60.796,-32.815 L 33.445,-49.433 C 26.086,-38.915 13.888,-31.975 0,-31.975 c -22.717,0 -41.229,-18.513 -41.229,-41.439 0,-22.512 18.512,-41.234 41.229,-41.234 13.888,0 26.296,6.944 33.66,17.672 l 27.346,-16.828 C 47.963,-133.58 25.456,-146.829 0,-146.829 c -40.599,0 -73.624,32.815 -73.624,73.415 C -73.624,-32.815 -40.599,0 0,0"
             id="path30"
             style="fill:#FFFFFF;fill-opacity:1;fill-rule:nonzero;stroke:none" /></g><g
           transform="translate(905.2047,281.1313)"
           id="g32"><path
             d="M 0,0 C 22.717,0 41.229,18.722 41.229,41.234 41.229,64.161 22.717,82.673 0,82.673 -22.721,82.673 -41.229,64.161 -41.229,41.234 -41.229,18.722 -22.721,0 0,0 m 0,114.648 c 40.389,0 73.414,-32.815 73.414,-73.414 0,-40.599 -33.025,-73.415 -73.414,-73.415 -40.599,0 -73.624,32.816 -73.624,73.415 0,40.599 33.025,73.414 73.624,73.414"
             id="path34"
             style="fill:#FFFFFF;fill-opacity:1;fill-rule:nonzero;stroke:none" /></g><g
           transform="translate(1158.1235,254.3064)"
           id="g36"><path
             d="m 0,0 -37.328,0 -43.925,74.45 -10.942,21.045 0.012,-0.421 0.824,-24.334 0,-70.74 -29.702,0 0,136.117 37.333,0 43.929,-74.454 10.951,-20.453 -0.021,0.451 -0.828,23.717 0,70.739 29.697,0 L 0,0 z"
             id="path38"
             style="fill:#FFFFFF;fill-opacity:1;fill-rule:nonzero;stroke:none" /></g><g
           transform="translate(1339.7997,361.3445)"
           id="g40"><path
             d="m 0,0 -44.753,0 0,-107.038 -33.202,0 0,107.038 -44.959,0 0,29.079 L 0,29.079 0,0 z"
             id="path42"
             style="fill:#FFFFFF;fill-opacity:1;fill-rule:nonzero;stroke:none" /></g><path
           d="m 1436.758,254.306 -33.819,0 0,136.117 33.819,0 0,-136.117 z"
           id="path44"
           style="fill:#FFFFFF;fill-opacity:1;fill-rule:nonzero;stroke:none" /><g
           transform="translate(2246.9343,254.3064)"
           id="g46"><path
             d="m 0,0 -29.697,0 0,65.172 1.236,36.71 0.02,1.884 L -63.932,0 l -27.02,0 -35.353,103.687 0.088,-1.805 1.24,-36.71 0,-65.172 -29.701,0 0,136.117 47.64,0 22.276,-70.739 8.207,-30.279 -10e-4,-0.002 8.292,30.075 22.271,70.945 45.993,0 L 0,0 z"
             id="path48"
             style="fill:#FFFFFF;fill-opacity:1;fill-rule:nonzero;stroke:none" /></g><path
           d="m 1827.551,199.148 -113.934,0 0,31.088 113.934,0 0,-31.088 z"
           id="path50"
           style="fill:#FFFFFF;fill-opacity:1;fill-rule:nonzero;stroke:none" /><g
           transform="translate(1769.6281,251.8158)"
           id="g52"><path
             d="m 0,0 c 36.479,0 59.586,23.738 59.586,59.614 l 0,79.075 -31.048,0 0,-79.075 c 0,-12.866 -9.287,-28.109 -26.934,-28.109 -17.647,0 -27.553,14.851 -27.553,28.109 l 0,79.075 -31.145,0 0,-79.075 C -57.094,22.633 -31.123,0 -0.119,0 L 0,0 z"
             id="path54"
             style="fill:#FFFFFF;fill-opacity:1;fill-rule:nonzero;stroke:none" /></g><g
           transform="translate(319.1234,281.0337)"
           id="g58" /><g
           transform="translate(320.0794,499.4907)"
           id="g62" /></g></g></g></svg>